<svg width="0" height="0" class="hidden">
  <symbol xmlns="http://www.w3.org/2000/svg" xml:space="preserve" version="1.0" xmlns:xlink="http://www.w3.org/1999/xlink" xmlnsXodm="http://www.corel.com/coreldraw/odm/2003" viewBox="0 0 329.92 118.65" id="rss-logo">
    <defs></defs>
    <g id="rs-school-logo">
      <metadata id="rs-school-logo-layer"></metadata>
      <path d="M278.98 15.46c-4.66,-6.19 -11.98,-9.5 -20.04,-9.84 -8.25,-0.35 -17.25,2.38 -25.07,8.27l-0.02 0.02c-7.8,5.88 -12.9,13.78 -14.83,21.79 -1.89,7.84 -0.74,15.78 3.92,21.97l0.01 0.01c4.66,6.18 11.97,9.49 20.03,9.83 8.25,0.35 17.25,-2.37 25.06,-8.26l0.01 0c7.81,-5.89 12.92,-13.8 14.86,-21.82 1.89,-7.84 0.73,-15.79 -3.93,-21.97zm-108.65 21.18l15.7 -1.01c0.35,2.57 1.01,4.48 2.09,5.85 1.73,2.15 4.11,3.22 7.28,3.22 2.32,0 4.17,-0.54 5.43,-1.67 1.19,-0.9 1.91,-2.33 1.91,-3.82 0,-1.43 -0.66,-2.8 -1.79,-3.7 -1.2,-1.07 -4,-2.15 -8.42,-3.1 -7.22,-1.61 -12.41,-3.76 -15.46,-6.51 -3.04,-2.56 -4.77,-6.32 -4.65,-10.32 0,-2.75 0.83,-5.49 2.39,-7.76 1.79,-2.57 4.23,-4.6 7.16,-5.73 3.16,-1.37 7.58,-2.09 13.13,-2.09 6.8,0 11.99,1.25 15.57,3.82 3.59,2.51 5.73,6.56 6.39,12.11l-15.52 0.9c-0.41,-2.39 -1.25,-4.12 -2.62,-5.25 -1.38,-1.14 -3.17,-1.67 -5.49,-1.67 -1.91,0 -3.35,0.41 -4.3,1.19 -0.9,0.72 -1.49,1.79 -1.43,2.98 0,0.9 0.47,1.74 1.19,2.27 0.78,0.72 2.63,1.38 5.55,1.97 7.22,1.55 12.36,3.11 15.52,4.72 2.8,1.42 4.9,3.13 6.3,5.12 2.93,-6.82 7.87,-13.24 14.58,-18.29l0.16 -0.12c8.73,-6.53 18.84,-9.55 28.14,-9.16 9.54,0.41 18.25,4.38 23.86,11.83 5.61,7.45 7.04,16.92 4.8,26.2 -2.19,9.05 -7.87,17.93 -16.55,24.52l-0.17 0.13c-0.4,0.3 -0.81,0.6 -1.22,0.89 5.05,1.06 9.18,3.19 12.37,6.38 2.41,2.41 4.22,5.3 5.43,8.68l0 -14.88 0.06 0 16.47 0 0 40.22 25.73 0 0 13.13 -42.26 0 0 -14.95c-0.39,1.13 -0.85,2.2 -1.37,3.19 -2.03,3.94 -5.19,7.17 -9.07,9.31 -4,2.21 -8.95,3.35 -14.86,3.35 -6.03,0 -10.98,-0.96 -14.92,-2.87 -4.06,-2.03 -7.4,-5.19 -9.61,-9.07 -2.45,-4.18 -3.7,-9.37 -3.7,-15.64 0,-7.76 1.94,-14.01 5.79,-18.7 -8.33,-1.01 -15.82,-4.84 -20.87,-11.42l-0.13 -0.18c-2.63,-3.5 -4.35,-7.44 -5.19,-11.6 -1.63,1.62 -3.55,2.92 -5.68,3.83 -3.4,1.49 -7.7,2.27 -12.83,2.27 -9.07,0 -15.34,-1.74 -18.86,-5.26 -3.52,-3.52 -5.61,-7.93 -6.03,-13.31zm63.86 -3.99l5.97 -4.18 7.34 10.44c1.25,1.67 2.21,3.46 2.92,5.43 0.42,1.49 0.3,3.11 -0.3,4.54 -0.77,1.79 -2.03,3.28 -3.7,4.36 -1.97,1.37 -3.64,2.14 -5.07,2.38 -1.37,0.24 -2.8,0 -4.12,-0.59 -1.43,-0.72 -2.68,-1.74 -3.64,-3.05l5.13 -4.77c0.42,0.65 0.96,1.25 1.56,1.73 0.41,0.3 0.89,0.48 1.43,0.48 0.42,0 0.83,-0.18 1.13,-0.42 0.6,-0.36 1.02,-1.08 0.96,-1.79 -0.18,-1.02 -0.6,-2.03 -1.26,-2.81l-8.35 -11.75 0 0zm17.9 6.62l5.43 -4.3c0.6,0.72 1.38,1.26 2.21,1.55 1.2,0.36 2.45,0.12 3.46,-0.65 0.72,-0.48 1.32,-1.14 1.56,-1.97 0.35,-1.08 -0.24,-2.27 -1.32,-2.63 -0.18,-0.06 -0.36,-0.12 -0.53,-0.12 -0.72,-0.06 -1.97,0.24 -3.82,1.02 -3.05,1.25 -5.44,1.73 -7.23,1.55 -1.73,-0.18 -3.34,-1.07 -4.29,-2.57 -0.72,-1.01 -1.08,-2.2 -1.14,-3.4 0,-1.37 0.36,-2.74 1.14,-3.88 1.13,-1.61 2.5,-2.98 4.17,-4.06 2.51,-1.73 4.72,-2.56 6.63,-2.56 1.91,0 3.7,0.89 5.37,2.74l-5.37 4.24c-1.07,-1.37 -3.1,-1.67 -4.48,-0.6l-0.18 0.18c-0.59,0.36 -1.01,0.9 -1.25,1.55 -0.18,0.48 -0.06,1.02 0.24,1.44 0.24,0.3 0.6,0.53 1.01,0.53 0.48,0.06 1.32,-0.17 2.51,-0.71 2.98,-1.26 5.25,-1.97 6.8,-2.21 1.32,-0.24 2.69,-0.12 3.94,0.42 1.14,0.47 2.09,1.31 2.75,2.32 0.83,1.2 1.31,2.63 1.37,4.12 0.06,1.55 -0.36,3.05 -1.19,4.36 -1.08,1.61 -2.45,2.98 -4.06,4.06 -3.28,2.27 -5.97,3.22 -8.12,2.86 -2.32,-0.36 -4.23,-1.55 -5.61,-3.28l0 0zm-87.91 38.97c1.2,-2.91 2.87,-5.44 5.02,-7.58 4.83,-4.83 11.63,-7.28 20.29,-7.28 8.89,0 15.69,2.39 20.53,7.16 4.83,4.78 7.22,11.46 7.22,20.06 0,6.26 -1.07,11.34 -3.16,15.33 -2.03,3.94 -5.2,7.17 -9.07,9.31 -4,2.21 -8.96,3.35 -14.87,3.35 -6.02,0 -10.98,-0.96 -14.92,-2.87 -4.05,-2.03 -7.4,-5.19 -9.6,-9.07 -0.54,-0.91 -1.02,-1.87 -1.44,-2.88l0 13.92 -16.59 0 0 -21.6 -18.02 0 0 21.6 -16.47 0 0 -53.35 16.47 0 0 18.68 18.02 0 0 -18.68 16.59 0 0 13.9zm14.21 12.83c0,5.37 1.01,9.25 2.98,11.64 1.97,2.33 4.72,3.52 8.18,3.52 3.52,0 6.26,-1.13 8.23,-3.46 1.97,-2.33 2.93,-6.44 2.93,-12.41 0,-5.02 -1.02,-8.72 -3.05,-10.98 -2.03,-2.33 -4.77,-3.47 -8.23,-3.47 -3.05,-0.12 -5.97,1.2 -8,3.53 -2.03,2.32 -3.04,6.2 -3.04,11.63l0 0zm72.21 0c0,5.37 1.02,9.25 2.99,11.64 1.96,2.33 4.71,3.52 8.17,3.52 3.52,0 6.27,-1.13 8.24,-3.46 1.97,-2.33 2.92,-6.44 2.92,-12.41 0,-5.02 -1.01,-8.72 -3.04,-10.98 -2.03,-2.33 -4.78,-3.47 -8.24,-3.47 -3.04,-0.12 -6.03,1.2 -8,3.53 -2.02,2.32 -3.04,6.2 -3.04,11.63l0 0zm-171.22 4.78l14.44 4.35c-0.78,3.65 -2.39,7.11 -4.6,10.15 -2.03,2.69 -4.71,4.77 -7.76,6.15 -3.1,1.37 -7.04,2.09 -11.81,2.09 -5.79,0 -10.57,-0.84 -14.21,-2.51 -3.4,-1.54 -6.35,-4.19 -8.89,-7.9 -0.29,0.56 -0.61,1.11 -0.95,1.63 -1.97,2.93 -4.72,5.2 -7.94,6.57 -3.4,1.49 -7.7,2.27 -12.83,2.27 -9.07,0 -15.34,-1.73 -18.86,-5.26 -3.52,-3.58 -5.49,-7.99 -5.97,-13.36l0 0 15.7 -1.02c0.35,2.57 1.01,4.48 2.09,5.85 1.67,2.15 4.11,3.28 7.28,3.28 2.32,0 4.17,-0.53 5.43,-1.67 1.19,-0.95 1.91,-2.33 1.91,-3.82 0,-1.43 -0.66,-2.8 -1.79,-3.7 -1.2,-1.07 -4,-2.15 -8.48,-3.1 -7.22,-1.61 -12.41,-3.76 -15.46,-6.51 -3.04,-2.56 -4.77,-6.32 -4.65,-10.32 0,-2.75 0.83,-5.49 2.39,-7.76 1.79,-2.57 4.23,-4.6 7.16,-5.73 3.16,-1.37 7.58,-2.09 13.13,-2.09 6.8,0 11.99,1.25 15.57,3.82 2.52,1.8 4.3,4.31 5.36,7.56 0.93,-1.58 2.03,-3 3.3,-4.28 4.71,-4.71 11.34,-7.1 19.93,-7.1 6.75,0 12,1.37 15.88,4.06 3.82,2.74 6.68,6.92 8.59,12.53l-14.56 3.23c-0.36,-1.26 -0.9,-2.51 -1.61,-3.59 -0.9,-1.25 -2.03,-2.2 -3.4,-2.92 -1.38,-0.72 -2.93,-1.01 -4.48,-1.01 -3.76,0 -6.62,1.49 -8.59,4.53 -1.5,2.21 -2.27,5.73 -2.27,10.51 0,5.9 0.89,9.96 2.68,12.17 1.79,2.21 4.3,3.28 7.58,3.28 3.17,0 5.55,-0.89 7.16,-2.62 1.62,-1.85 2.81,-4.42 3.53,-7.76zm-37.4 -7.8c0.19,-3.11 0.7,-5.95 1.54,-8.5l-12.43 0.72c-0.41,-2.39 -1.25,-4.12 -2.62,-5.25 -1.31,-1.14 -3.17,-1.67 -5.49,-1.61 -1.91,0 -3.35,0.42 -4.3,1.25 -0.95,0.72 -1.49,1.79 -1.43,2.98 0,0.9 0.48,1.74 1.19,2.27 0.78,0.72 2.63,1.38 5.55,1.97 7.22,1.55 12.36,3.11 15.52,4.72 0.89,0.45 1.72,0.94 2.47,1.45zm-38.22 -33.74l0 -53.36 27.51 0c5.08,0 9.01,0.42 11.7,1.32 2.63,0.83 4.95,2.56 6.51,4.89 1.73,2.57 2.56,5.55 2.5,8.66 0.18,5.25 -2.5,10.26 -7.1,12.89 -1.79,1.01 -3.76,1.73 -5.79,2.09 1.49,0.41 2.99,1.13 4.3,1.96 1.01,0.84 1.85,1.8 2.62,2.81 0.9,1.01 1.68,2.15 2.33,3.34l8 15.46 -18.74 0 -8.83 -16.41c-1.14,-2.09 -2.09,-3.46 -2.99,-4.12 -1.19,-0.84 -2.62,-1.25 -4.06,-1.25l-1.43 0 0 21.66 -16.53 0 0 0.06zm16.53 -31.75l6.98 0c1.5,-0.12 2.93,-0.36 4.36,-0.72 1.08,-0.18 2.03,-0.77 2.69,-1.67 1.61,-2.15 1.37,-5.19 -0.6,-7.04 -1.07,-0.9 -3.16,-1.37 -6.15,-1.37l-7.28 0 0 10.8z"></path>
    </g>
  </symbol>
  <symbol xmlns="http://www.w3.org/2000/svg" viewBox="0 0 1024 1024" id="github">
    <path fill-rule="evenodd" clip-rule="evenodd" d="M8 0C3.58 0 0 3.58 0 8C0 11.54 2.29 14.53 5.47 15.59C5.87 15.66 6.02 15.42 6.02 15.21C6.02 15.02 6.01 14.39 6.01 13.72C4 14.09 3.48 13.23 3.32 12.78C3.23 12.55 2.84 11.84 2.5 11.65C2.22 11.5 1.82 11.13 2.49 11.12C3.12 11.11 3.57 11.7 3.72 11.94C4.44 13.15 5.59 12.81 6.05 12.6C6.12 12.08 6.33 11.73 6.56 11.53C4.78 11.33 2.92 10.64 2.92 7.58C2.92 6.71 3.23 5.99 3.74 5.43C3.66 5.23 3.38 4.41 3.82 3.31C3.82 3.31 4.49 3.1 6.02 4.13C6.66 3.95 7.34 3.86 8.02 3.86C8.7 3.86 9.38 3.95 10.02 4.13C11.55 3.09 12.22 3.31 12.22 3.31C12.66 4.41 12.38 5.23 12.3 5.43C12.81 5.99 13.12 6.7 13.12 7.58C13.12 10.65 11.25 11.33 9.47 11.53C9.76 11.78 10.01 12.26 10.01 13.01C10.01 14.08 10 14.94 10 15.21C10 15.42 10.15 15.67 10.55 15.59C13.71 14.53 16 11.53 16 8C16 3.58 12.42 0 8 0Z" transform="scale(64)"></path>
  </symbol>
</svg>